<svg width="123" height="121" viewBox="0 0 123 121" fill="none" xmlns="http://www.w3.org/2000/svg">
<g clip-path="url(#clip0_1444_4338)">
<path d="M30.1143 106.839C33.7068 104.96 36.9046 103.517 39.8439 101.704C43.6404 99.3485 47.3009 98.8588 49.8319 102.895C52.3085 106.852 49.655 109.989 46.1987 111.484C38.3878 114.859 30.4818 118.3 22.2763 120.457C15.1187 122.336 12.887 119.266 14.8329 112.067C15.4725 109.724 16.0032 107.342 16.8468 105.066C18.3845 100.963 17.6225 97.7207 14.7513 94.1342C-2.97958 71.8876 -4.83022 44.0164 9.78445 24.0593C24.5896 3.82427 56.5133 -5.33377 82.6401 3.16257C106.78 11.0104 122.497 29.7103 122.987 51.1497C123.681 82.1044 96.3022 104.642 64.7732 99.0441C38.0612 94.3063 20.589 73.7669 23.0656 50.1571C25.0931 30.8881 43.8581 21.3066 58.187 28.8633C60.0921 29.8691 63.4532 29.4059 65.6849 28.5192C74.734 24.9328 83.0483 25.7136 90.5053 31.841C99.5953 39.3183 101.909 49.191 99.2551 60.0165C96.9146 69.5716 90.1379 75.7387 80.5309 78.2532C78.2312 78.8488 75.2103 79.4575 72.3935 75.5799C71.4001 72.2449 74.04 69.3599 76.0676 68.1291C83.3069 63.7618 88.7635 58.8652 87.5388 49.6807C86.1509 39.1727 76.3125 34.7393 67.8485 41.2505C63.3852 44.6914 60.0921 45.3002 55.4383 41.5284C47.6955 35.2422 40.1977 37.5979 36.2922 46.9544C32.1691 56.8403 37.2176 71.2524 47.6002 79.2987C66.0115 93.5784 92.5057 90.561 104.698 72.8008C117.326 54.392 110.005 29.4324 88.4506 18.1172C72.7064 9.85905 56.282 9.18411 39.8983 15.788C4.91289 29.9221 7.60721 65.4029 23.2561 85.2541C30.8356 94.8621 30.9988 94.743 30.1143 106.839Z" fill="#FFF1F2"/>
</g>
<defs>
<clipPath id="clip0_1444_4338">
<rect width="123" height="121" fill="white"/>
</clipPath>
</defs>
</svg>
