<?xml version="1.0" encoding="UTF-8"?>
<svg version="1.1" xmlns="http://www.w3.org/2000/svg" width="77" height="77">
<path d="M0 0 C7.97183527 4.66379478 15.44533058 11.49690823 18.47265625 20.4609375 C20.07475654 29.38243718 19.98691261 38.9756881 14.87109375 46.6796875 C9.96847917 53.65257714 3.44587093 59.08699906 -5.12890625 60.6796875 C-16.93934443 61.58019012 -26.97109378 59.47170767 -36.12890625 51.6796875 C-42.6588171 44.67436558 -44.63039157 38.17638557 -44.44140625 28.65625 C-43.82709611 22.80494594 -41.7613033 19.16023366 -37.44140625 15.2421875 C-31.34806292 12.36796895 -25.69600432 12.42756619 -19.16015625 13.50390625 C-16.85307734 13.70355731 -14.9070232 13.3861769 -12.62890625 12.9921875 C-7.58997729 12.32207087 -4.20225235 13.73987436 -0.12890625 16.6796875 C4.67124881 21.72600435 5.28135578 26.06392607 5.21875 32.81640625 C4.67511964 37.29372149 2.85280564 40.35487451 -0.12890625 43.6796875 C-3.27787758 46.12014028 -6.1396245 47.3647442 -10.12890625 47.6796875 C-11.11890625 47.0196875 -12.10890625 46.3596875 -13.12890625 45.6796875 C-12.97646658 43.01199328 -12.68239636 41.23634041 -10.76171875 39.3046875 C-9.23342801 38.07620499 -7.68190109 36.87678769 -6.12890625 35.6796875 C-4.53379328 32.48946156 -4.75348064 29.15060354 -5.12890625 25.6796875 C-6.00761539 23.4667065 -6.00761539 23.4667065 -8.12890625 22.6796875 C-12.47399841 22.7303537 -12.47399841 22.7303537 -16.12890625 24.6796875 C-22.59044471 25.03866186 -22.59044471 25.03866186 -26.12890625 22.6796875 C-28.46090013 22.60063686 -30.79723247 22.59169981 -33.12890625 22.6796875 C-35.41956234 27.93472205 -35.52927007 32.20806728 -34.12890625 37.6796875 C-31.70534372 43.74402783 -28.12645948 46.80067658 -22.41015625 49.76953125 C-15.91170395 52.36223568 -9.647758 52.42955433 -3.06640625 50.1171875 C3.04566573 47.48443808 6.40431403 43.74659055 9.24609375 37.8046875 C10.76401469 30.21508278 10.21588602 24.82934816 6.41015625 17.97265625 C1.95576895 11.3362975 -4.40971519 7.55164391 -12.12890625 5.6796875 C-22.02687118 4.55439682 -31.14276514 5.57291627 -39.48046875 11.29296875 C-45.23417218 16.01100557 -48.46778966 21.20650917 -49.3671875 28.65234375 C-49.71147636 38.34679321 -45.88871235 45.93007436 -40.39453125 53.671875 C-38.73364229 56.30674205 -38.20451118 58.57988521 -38.12890625 61.6796875 C-38.45890625 62.3396875 -38.78890625 62.9996875 -39.12890625 63.6796875 C-38.07703125 62.9990625 -37.02515625 62.3184375 -35.94140625 61.6171875 C-33.27853245 60.08319935 -32.41271699 59.6611781 -29.25390625 59.8671875 C-27.12890625 60.6796875 -27.12890625 60.6796875 -26.12890625 61.6796875 C-26.08826793 63.34585865 -26.08618525 65.01356845 -26.12890625 66.6796875 C-40.32788584 74.03172832 -40.32788584 74.03172832 -49.12890625 73.6796875 C-50.21054222 70.42747125 -49.97670531 68.69799434 -48.87890625 65.4921875 C-47.90921216 61.54876486 -48.24280431 59.63966301 -50.25390625 56.1171875 C-51.20383047 54.63260649 -52.16213839 53.15335527 -53.12890625 51.6796875 C-53.90212373 50.25454155 -54.6537985 48.817403 -55.37890625 47.3671875 C-55.6934375 46.75230469 -56.00796875 46.13742188 -56.33203125 45.50390625 C-59.70268097 37.78776204 -59.49503973 27.10010511 -57.03515625 19.140625 C-51.53197494 7.5780898 -43.99716168 2.26741477 -32.38671875 -2.4296875 C-22.0411739 -5.25796595 -9.71616763 -4.38155839 0 0 Z " fill="#F8395C" transform="translate(58.12890625,3.3203125)"/>
</svg>
